<svg id="Calque_1" data-name="Calque 1" xmlns="http://www.w3.org/2000/svg" viewBox="0 0 384 384"><defs><style>.cls-1{fill:none;}.cls-2{fill:#fff;}</style></defs><title>micro blanc</title><path class="cls-1" d="M384,125.75V384H0V0H384V107c-.22-1-.44-1.92-.65-2.89-2-9.35-3.35-18.92-6.2-28-5.62-17.9-15.7-33.28-28.86-46.63-3.37-3.42-7.37-4.64-12-3.17a10.64,10.64,0,0,0-7.47,8.6c-.91,4.62,1.28,8.09,4.37,11.33,18.25,19.16,27.85,42,28.22,68.48.4,28.17-9.6,52.35-29.11,72.65-4.9,5.1-4.91,11.84-.26,16.35s11.54,4.11,16.36-.8c15-15.25,25.59-33.1,31-53.79C381.48,141.49,382.52,133.56,384,125.75Zm-134.85,20.8c0-1,.11-1.75.11-2.48,0-25.69,0-51.38-.06-77.07a48.83,48.83,0,0,0-1.15-10c-6.13-28.21-32.88-47.88-60.82-44.83-30,3.27-51.69,27.1-51.74,56.89q0,36.85,0,73.71v3.78ZM181,348.82c-11.31,0-22.27,0-33.22,0-7.23,0-12.31,4.71-12.29,11.25s5.09,11.18,12.35,11.19q44.52,0,89.05,0c7.28,0,12.33-4.65,12.35-11.2s-5-11.22-12.3-11.24c-9.85,0-19.7,0-29.56,0-1.19,0-2.39-.11-3.52-.16V302.8c2.58-.41,4.9-.77,7.22-1.17,46.65-8,82.85-50.52,83.07-97.52,0-7.24-4.52-12.38-11.06-12.47s-11.05,4.91-11.45,12.16a97.43,97.43,0,0,1-1.78,15.56c-8.5,38.47-44.43,65.33-83.85,61.75-41.6-3.77-72-36.44-73-77.32-.17-7.26-4.86-12.25-11.41-12.15s-11.07,5.23-11,12.49c.19,41.71,28.84,80.75,69,93.72,6.94,2.24,14.14,3.67,21.4,5.51Zm69-179.39H136.12c0,14-1.18,27.77.25,41.31,2.78,26.25,26.5,47.09,53,48.2,27.57,1.16,53.25-17.11,58-43.48C250.1,200.55,249.23,185,250,169.43ZM.73,112.7c0,14.77,1.49,26,4.57,37a122.2,122.2,0,0,0,31.32,53.63,11.07,11.07,0,0,0,11.66,3.05,10.53,10.53,0,0,0,7.57-8.5c1-5-1.55-8.48-4.75-11.91-22-23.62-31-51.61-26.9-83.52,2.81-22.07,12.53-41,28.06-57,5.09-5.24,5.1-12.09.28-16.62s-11.45-4-16.34,1C12.88,53.82,1.29,82.67.73,112.7Zm46.15,3.81a77.52,77.52,0,0,0,21.85,54.13c5.16,5.48,12,6,16.88,1.37s4.55-11.24-.43-16.68c-21.28-23.24-21.29-54.76,0-78,5-5.45,5.17-12.15.44-16.67S73.87,56.57,68.72,62Q47,84.94,46.88,116.51Zm291-2.15c-.22-2.33-.4-6.58-1.07-10.76A77,77,0,0,0,315.07,61a10.82,10.82,0,0,0-11.32-3A10.57,10.57,0,0,0,296,66.33c-1,4.43.73,8,3.76,11.16a54.11,54.11,0,0,1,15.42,34c1.31,17-4,31.67-15.75,44-3,3.09-4.43,6.64-3.39,10.91a10.7,10.7,0,0,0,8.2,8.34c4.41,1.13,8.12-.3,11.19-3.5C330.18,155.92,337.67,137.58,337.88,114.36ZM121.32,100.8c-.6-4.92-3.13-8.83-7.31-10.62-4.43-1.9-9.05-.92-12.66,2.67-12.35,12.34-12.73,32.89-.84,46,4.7,5.2,11.36,6,16.28,1.87s5.21-10.89.89-16.34c-4.66-5.87-4.49-10.28.12-16.47C119.36,105.86,120.16,103.2,121.32,100.8Zm171.57,15.88A32.58,32.58,0,0,0,283.54,93c-4.5-4.7-11.11-5.07-15.78-1s-5,10.75-1,15.8c5.07,6.47,5.07,10.46,0,17-4,5.08-3.51,11.86,1,15.81,4.72,4.1,11.52,3.6,16.05-1.29A32.62,32.62,0,0,0,292.89,116.68Z"/><path class="cls-2" d="M384,125.75c-1.48,7.81-2.52,15.74-4.54,23.41-5.42,20.69-16,38.54-31,53.79-4.82,4.91-11.81,5.22-16.36.8s-4.64-11.25.26-16.35c19.51-20.3,29.51-44.48,29.11-72.65-.37-26.45-10-49.32-28.22-68.48-3.09-3.24-5.28-6.71-4.37-11.33a10.64,10.64,0,0,1,7.47-8.6c4.58-1.47,8.58-.25,12,3.17,13.16,13.35,23.24,28.73,28.86,46.63,2.85,9.09,4.18,18.66,6.2,28,.21,1,.43,1.93.65,2.89Z"/><path class="cls-2" d="M249.15,146.55H135.49v-3.78q0-36.86,0-73.71c0-29.79,21.75-53.62,51.74-56.89C215.17,9.12,241.92,28.79,248.05,57a48.83,48.83,0,0,1,1.15,10c.09,25.69.06,51.38.06,77.07C249.26,144.8,249.19,145.53,249.15,146.55Z"/><path class="cls-2" d="M181,348.82V303.36c-7.26-1.84-14.46-3.27-21.4-5.51-40.18-13-68.83-52-69-93.72,0-7.26,4.51-12.39,11-12.49s11.24,4.89,11.41,12.15c1,40.88,31.38,73.55,73,77.32,39.42,3.58,75.35-23.28,83.85-61.75a97.43,97.43,0,0,0,1.78-15.56c.4-7.25,4.91-12.26,11.45-12.16s11.09,5.23,11.06,12.47c-.22,47-36.42,89.51-83.07,97.52-2.32.4-4.64.76-7.22,1.17v45.85c1.13.05,2.33.16,3.52.16,9.86,0,19.71,0,29.56,0,7.26,0,12.32,4.69,12.3,11.24s-5.07,11.19-12.35,11.2q-44.52,0-89.05,0c-7.26,0-12.33-4.66-12.35-11.19s5.06-11.23,12.29-11.25C158.74,348.79,169.7,348.82,181,348.82Z"/><path class="cls-2" d="M250,169.43c-.75,15.56.12,31.12-2.57,46-4.77,26.37-30.45,44.64-58,43.48-26.52-1.11-50.24-21.95-53-48.2-1.43-13.54-.25-27.35-.25-41.31Z"/><path class="cls-2" d="M.73,112.7c.56-30,12.15-58.88,35.47-82.91,4.89-5,11.65-5.42,16.34-1s4.81,11.38-.28,16.62c-15.53,16-25.25,34.93-28.06,57-4.07,31.91,4.91,59.9,26.9,83.52,3.2,3.43,5.8,6.94,4.75,11.91a10.53,10.53,0,0,1-7.57,8.5,11.07,11.07,0,0,1-11.66-3.05A122.2,122.2,0,0,1,5.3,149.66C2.22,138.68.75,127.47.73,112.7Z"/><path class="cls-2" d="M46.88,116.51Q47.09,85,68.72,62c5.15-5.45,12.12-6,16.89-1.39s4.55,11.22-.44,16.67c-21.28,23.27-21.27,54.79,0,78,5,5.44,5.15,12.16.43,16.68s-11.72,4.11-16.88-1.37A77.52,77.52,0,0,1,46.88,116.51Z"/><path class="cls-2" d="M337.88,114.36c-.21,23.22-7.7,41.56-22.47,56.91-3.07,3.2-6.78,4.63-11.19,3.5a10.7,10.7,0,0,1-8.2-8.34c-1-4.27.44-7.82,3.39-10.91,11.77-12.33,17.06-27,15.75-44a54.11,54.11,0,0,0-15.42-34c-3-3.18-4.77-6.73-3.76-11.16A10.57,10.57,0,0,1,303.75,58a10.82,10.82,0,0,1,11.32,3,77,77,0,0,1,21.74,42.58C337.48,107.78,337.66,112,337.88,114.36Z"/><path class="cls-2" d="M121.32,100.8c-1.16,2.4-2,5.06-3.52,7.15-4.61,6.19-4.78,10.6-.12,16.47,4.32,5.45,3.95,12.33-.89,16.34s-11.58,3.33-16.28-1.87c-11.89-13.15-11.51-33.7.84-46,3.61-3.59,8.23-4.57,12.66-2.67C118.19,92,120.72,95.88,121.32,100.8Z"/><path class="cls-2" d="M292.89,116.68a32.62,32.62,0,0,1-9.07,22.65c-4.53,4.89-11.33,5.39-16.05,1.29-4.55-4-5-10.73-1-15.81,5.07-6.52,5.07-10.51,0-17-4-5-3.5-11.85,1-15.8s11.28-3.7,15.78,1A32.58,32.58,0,0,1,292.89,116.68Z"/></svg>